HIERARCHY
ROOT Pelvis
{
	OFFSET 0.000000 0.000000 0.000000
	CHANNELS 6 Xposition Yposition Zposition Xrotation Yrotation Zrotation
	JOINT LeftUpLeg_virtual
	{
		OFFSET 0.000000 0.000000 0.000000
		CHANNELS 3 Xrotation Yrotation Zrotation
		JOINT LeftUpLeg
		{
			OFFSET 18.735201 -5.666702 -4.541200
			CHANNELS 3 Xrotation Yrotation Zrotation
			JOINT LeftLeg
			{
				OFFSET -0.021200 -31.938179 0.493100
				CHANNELS 3 Xrotation Yrotation Zrotation
				JOINT LeftFoot
				{
					OFFSET 0.021200 -31.938179 -4.336299
					CHANNELS 3 Xrotation Yrotation Zrotation
					JOINT LeftToeBase
					{
						OFFSET 0.943001 -26.722000 15.023500
						CHANNELS 3 Xrotation Yrotation Zrotation
						End Site
						{
							OFFSET 0 0 0
						}
					}
				}
			}
		}
	}
	JOINT RightUpLeg_virtual
	{
		OFFSET 0.000000 0.000000 0.000000
		CHANNELS 3 Xrotation Yrotation Zrotation
		JOINT RightUpLeg
		{
			OFFSET -18.735201 -5.666702 -4.541200
			CHANNELS 3 Xrotation Yrotation Zrotation
			JOINT RightLeg
			{
				OFFSET 0.018946 -31.938133 0.493100
				CHANNELS 3 Xrotation Yrotation Zrotation
				JOINT RightFoot
				{
					OFFSET -0.018946 -31.938126 -4.336299
					CHANNELS 3 Xrotation Yrotation Zrotation
					JOINT RightToeBase
					{
						OFFSET -0.943001 -26.722004 15.023500
						CHANNELS 3 Xrotation Yrotation Zrotation
						End Site
						{
							OFFSET 0 0 0
						}
					}
				}
			}
		}
	}
	JOINT Hips_virtual
	{
		OFFSET 0.000000 0.000000 0.000000
		CHANNELS 3 Xrotation Yrotation Zrotation
		JOINT Hips
		{
			OFFSET -0.000000 -0.000000 -0.000000
			CHANNELS 3 Xrotation Yrotation Zrotation
			JOINT Spine
			{
				OFFSET 0.000000 10.199997 -0.299500
				CHANNELS 3 Xrotation Yrotation Zrotation
				JOINT Spine1
				{
					OFFSET 0.000000 11.900002 -1.516600
					CHANNELS 3 Xrotation Yrotation Zrotation
					JOINT Spine2
					{
						OFFSET 0.000000 13.600006 -2.842500
						CHANNELS 3 Xrotation Yrotation Zrotation
						JOINT Neck_virtual
						{
							OFFSET 0.000000 0.000000 0.000000
							CHANNELS 3 Xrotation Yrotation Zrotation
							JOINT Neck
							{
								OFFSET 0.000000 9.624100 -2.890100
								CHANNELS 3 Xrotation Yrotation Zrotation
								JOINT Head
								{
									OFFSET 0.000000 14.068802 -1.351900
									CHANNELS 3 Xrotation Yrotation Zrotation
									End Site
									{
										OFFSET 0 0 0
									}
								}
							}
						}
						JOINT LeftShoulder_virtual
						{
							OFFSET 0.000000 0.000000 0.000000
							CHANNELS 3 Xrotation Yrotation Zrotation
							JOINT LeftShoulder
							{
								OFFSET 15.263000 10.923401 -0.547700
								CHANNELS 3 Xrotation Yrotation Zrotation
								JOINT LeftArm
								{
									OFFSET 25.438599 -2.830597 -13.032500
									CHANNELS 3 Xrotation Yrotation Zrotation
									JOINT LeftForeArm
									{
										OFFSET 29.960503 0.000000 0.000000
										CHANNELS 3 Xrotation Yrotation Zrotation
										JOINT LeftHand
										{
											OFFSET 27.849251 0.000000 0.000000
											CHANNELS 3 Xrotation Yrotation Zrotation
											End Site
											{
												OFFSET 0 0 0
											}
										}
									}
								}
							}
						}
						JOINT RightShoulder_virtual
						{
							OFFSET 0.000000 0.000000 0.000000
							CHANNELS 3 Xrotation Yrotation Zrotation
							JOINT RightShoulder
							{
								OFFSET -15.263000 10.923401 -0.547700
								CHANNELS 3 Xrotation Yrotation Zrotation
								JOINT RightArm
								{
									OFFSET -25.438599 -2.830597 -13.032500
									CHANNELS 3 Xrotation Yrotation Zrotation
									JOINT RightForeArm
									{
										OFFSET -29.960503 0.000000 0.000000
										CHANNELS 3 Xrotation Yrotation Zrotation
										JOINT RightHand
										{
											OFFSET -27.849251 0.000000 0.000000
											CHANNELS 3 Xrotation Yrotation Zrotation
											End Site
											{
												OFFSET 0 0 0
											}
										}
									}
								}
							}
						}
					}
				}
			}
		}
	}
}
MOTION
Frames: 9
Frame Time: 0.03333333
0.112151 91.763626 4.888702 0.000000 0.000000 0.000000 -2.510997 -0.633482 1.312588 -12.686232 13.350469 10.593105 20.807183 -10.096833 -0.605615 -6.414932 2.116945 -9.885807 0.000000 0.000000 0.000000 -2.587745 1.027076 0.952303 -13.757943 -10.439202 -16.093440 17.857564 8.551246 1.363704 -8.837767 0.400693 11.069404 0.000000 0.000000 0.000000 -3.243277 -1.256561 1.307155 1.103644 0.798819 -1.031463 0.786449 1.294389 0.720177 0.061409 0.075710 0.055918 0.000000 0.000000 0.000000 0.451408 0.478987 -0.097165 0.369745 -0.845933 -0.350347 0.000000 0.000000 0.000000 0.643109 0.519803 -0.121240 0.780438 -4.324066 -10.831959 4.747171 -16.285601 -65.675821 1.385028 -25.781780 1.106147 0.000000 0.000000 0.000000 0.525808 0.449833 -0.321052 0.939639 7.092843 13.931967 5.881667 10.760464 59.877051 -1.060962 26.650599 0.999170 0.000000 0.000000 0.000000 
0.073131 91.982635 4.915806 0.000000 0.000000 0.000000 -2.183690 -0.467005 1.295670 -12.260581 12.877827 10.273749 19.929363 -10.128275 -0.658345 -6.959550 2.127676 -10.148683 0.000000 0.000000 0.000000 -2.283145 1.324448 1.020175 -13.935191 -10.537009 -16.119223 17.942968 8.444523 1.388191 -8.007849 0.445895 10.649815 0.000000 0.000000 0.000000 -3.046603 -0.974156 1.301249 0.942163 0.661213 -0.814809 0.693031 1.177568 0.741161 0.152156 0.127471 0.034200 0.000000 0.000000 0.000000 0.549440 0.496075 -0.110527 0.394842 -0.829571 -0.285412 0.000000 0.000000 0.000000 0.734366 0.572684 -0.179068 0.817392 -4.130464 -10.827044 5.208004 -16.087939 -65.748869 1.443383 -24.780669 1.100676 0.000000 0.000000 0.000000 0.529243 0.486673 -0.318051 0.986051 7.209090 14.002818 6.226188 10.047727 60.635045 -0.840887 26.415021 0.930312 0.000000 0.000000 0.000000 
0.089613 92.241966 4.809929 0.000000 0.000000 0.000000 -1.207176 -0.320932 1.258500 -12.645495 12.443301 10.131676 19.334923 -9.767871 -0.809871 -7.033956 2.176539 -10.250685 0.000000 0.000000 0.000000 -1.367266 1.545578 1.098983 -14.434879 -10.648054 -16.072789 17.792472 8.248658 1.402419 -7.064857 0.295579 10.215319 0.000000 0.000000 0.000000 -2.201244 -0.591440 1.336971 0.896228 0.581898 -0.660292 0.507807 1.090169 0.778053 0.247533 0.196256 0.059004 0.000000 0.000000 0.000000 0.679534 0.559758 -0.061903 0.413320 -0.791168 -0.280234 0.000000 0.000000 0.000000 0.826835 0.667536 -0.168879 0.870762 -3.752170 -10.772566 4.981935 -16.533573 -64.898928 1.498479 -24.610715 1.049133 0.000000 0.000000 0.000000 0.533688 0.562680 -0.273278 0.974758 7.136522 13.923546 6.753715 9.686735 60.902488 -0.481212 26.242550 0.761046 0.000000 0.000000 0.000000 
0.127625 92.392509 4.470848 0.000000 0.000000 0.000000 0.318001 -0.179620 1.205739 -14.173542 12.006655 10.205594 19.627980 -9.088405 -0.910453 -6.786265 2.372920 -9.993368 0.000000 0.000000 0.000000 0.023401 1.729989 1.119559 -15.563274 -10.661311 -16.005908 17.835830 8.084805 1.417280 -6.324208 0.039441 9.828973 0.000000 0.000000 0.000000 -0.774834 -0.147758 1.365951 0.854079 0.465698 -0.745606 0.309128 1.040193 0.797833 0.340373 0.291328 0.091321 0.000000 0.000000 0.000000 0.797444 0.675686 -0.002867 0.397252 -0.736794 -0.325975 0.000000 0.000000 0.000000 0.921239 0.795366 -0.122925 0.942777 -3.350030 -10.590975 3.641359 -17.400901 -63.480816 1.534408 -26.080804 0.969450 0.000000 0.000000 0.000000 0.551313 0.680516 -0.217508 0.959975 6.786099 13.651014 6.842428 9.862980 60.457945 -0.064217 27.074761 0.524790 0.000000 0.000000 0.000000 
0.149086 92.296562 3.877018 0.000000 0.000000 0.000000 2.240457 0.083858 1.135214 -16.952226 11.412499 10.496940 21.032666 -8.341811 -0.888874 -6.810414 2.591133 -9.623403 0.000000 0.000000 0.000000 1.775119 1.887656 1.074290 -17.628370 -10.518157 -16.042873 18.747102 8.032256 1.439582 -5.996452 -0.233663 9.544566 0.000000 0.000000 0.000000 1.137677 0.366123 1.360344 0.734361 0.238839 -0.918568 0.168739 1.008023 0.785315 0.437262 0.426971 0.099918 0.000000 0.000000 0.000000 0.885719 0.843496 0.025521 0.318713 -0.669335 -0.387445 0.000000 0.000000 0.000000 1.019377 0.961994 -0.094867 1.018453 -3.073370 -10.300528 0.873355 -18.419022 -61.997265 1.519891 -29.407117 0.874376 0.000000 0.000000 0.000000 0.612447 0.848064 -0.174525 0.974325 6.332585 13.366780 5.980203 10.720819 59.203199 0.347825 29.639787 0.250894 0.000000 0.000000 0.000000 
0.134334 91.818840 2.977623 0.000000 0.000000 0.000000 4.351335 0.474189 1.054910 -20.942098 10.586809 10.983335 23.621835 -7.718837 -0.779863 -7.332579 2.623489 -9.569816 0.000000 0.000000 0.000000 3.817353 2.088387 0.930859 -21.169688 -10.238690 -16.321557 21.161526 8.150957 1.520874 -6.278529 -0.425985 9.476343 0.000000 0.000000 0.000000 3.364893 0.815189 1.290349 0.585278 0.048947 -1.020643 0.222627 0.972500 0.759585 0.557953 0.600702 0.076993 0.000000 0.000000 0.000000 0.942603 1.044045 0.012040 0.149410 -0.596070 -0.434603 0.000000 0.000000 0.000000 1.114343 1.145751 -0.119325 1.083453 -3.055110 -9.914102 -3.871264 -19.357813 -60.833531 1.400642 -34.645899 0.763053 0.000000 0.000000 0.000000 0.697555 1.050423 -0.142964 1.006715 6.063316 13.122788 3.420766 12.380483 56.932854 0.657701 34.432244 0.004346 0.000000 0.000000 0.000000 
0.091429 90.875443 1.747490 0.000000 0.000000 0.000000 6.490380 0.916856 0.951744 -26.203864 9.608705 11.676203 27.652190 -7.245979 -0.668097 -8.269243 2.477496 -9.865936 0.000000 0.000000 0.000000 5.996623 2.287017 0.735478 -26.374390 -9.762950 -16.886968 25.451588 8.407546 1.670948 -7.422676 -0.535026 9.457573 0.000000 0.000000 0.000000 5.769845 1.227909 1.164021 0.410079 -0.175469 -0.987638 0.527396 0.925819 0.766645 0.711869 0.793303 0.020470 0.000000 0.000000 0.000000 0.974422 1.253081 -0.039329 -0.104933 -0.526792 -0.440845 0.000000 0.000000 0.000000 1.206983 1.334204 -0.202986 1.103168 -3.445429 -9.438961 -10.659011 -19.924900 -60.146612 1.267178 -41.645033 0.662505 0.000000 0.000000 0.000000 0.796226 1.283737 -0.135095 1.018869 6.142114 12.961218 -1.023775 14.403375 53.590617 0.843093 41.402189 -0.171063 0.000000 0.000000 0.000000 
0.029624 89.422501 0.237309 0.000000 0.000000 0.000000 8.537864 1.302588 0.827254 -32.644483 8.417093 12.495539 33.307049 -6.813512 -0.547378 -9.676408 2.302260 -10.180755 0.000000 0.000000 0.000000 8.149234 2.327906 0.540729 -32.939380 -8.937695 -17.634544 31.442106 8.805225 1.819389 -9.506009 -0.623758 9.346881 0.000000 0.000000 0.000000 8.199511 1.569801 1.010302 0.271070 -0.365946 -0.956135 1.070487 0.855566 0.841181 0.904192 0.974487 -0.064535 0.000000 0.000000 0.000000 1.014594 1.448677 -0.108704 -0.424349 -0.475455 -0.386839 0.000000 0.000000 0.000000 1.284455 1.496986 -0.319521 1.074628 -4.278808 -8.811161 -19.186164 -20.070962 -59.851274 1.151383 -49.711712 0.578919 0.000000 0.000000 0.000000 0.920089 1.505061 -0.143444 0.977405 6.623290 12.886830 -7.274509 16.471071 49.262360 0.922356 49.775045 -0.228214 0.000000 0.000000 0.000000 
0.009533 87.543663 -1.451424 0.000000 0.000000 0.000000 10.483573 1.363537 0.723333 -39.785162 6.934961 13.221146 40.196346 -6.383365 -0.390495 -11.421671 2.204810 -10.222339 0.000000 0.000000 0.000000 10.234491 2.164869 0.421978 -40.289442 -7.607384 -18.389716 38.556210 9.382169 1.838896 -12.152006 -0.649611 9.144661 0.000000 0.000000 0.000000 10.509067 1.758479 0.868511 0.217921 -0.405390 -0.985556 1.781073 0.768987 0.978122 1.146948 1.124663 -0.170285 0.000000 0.000000 0.000000 1.079938 1.610335 -0.184910 -0.777481 -0.447164 -0.286379 0.000000 0.000000 0.000000 1.364658 1.621825 -0.434579 1.026974 -5.515189 -7.984476 -28.698034 -19.732348 -59.777160 0.988086 -57.509271 0.433045 0.000000 0.000000 0.000000 1.077986 1.688151 -0.173867 0.904130 7.406516 12.844752 -15.273952 18.579393 44.682647 0.813786 57.942394 -0.131352 0.000000 0.000000 0.000000 
